<svg version="1.0" xmlns="http://www.w3.org/2000/svg" width="1045.333" height="1045.333" viewBox="0 0 784 784"><path d="M313.6 119.7c-.2.3-1 .6-1.8.7-.7.1-3 1-5.2 1.9-2.1.9-4 1.7-4.3 1.7-2.4 0-19.3 16.4-19.3 18.7 0 .6-.3 1.3-.7 1.5-1.5.6-7.1 12.4-8.3 17.6-3.2 13.5.7 23.8 14.1 37.7 5 5.2 9.7 9.5 10.3 9.5.6 0 2-1.2 3.1-2.7 1.1-1.4 2.7-3.4 3.5-4.2.9-.9 4.3-4.8 7.5-8.6 3.3-3.9 6.2-7.2 6.5-7.5.3-.3 7.1-8.1 15-17.5 17.9-20.9 18.6-21.8 23.2-26.9 2.1-2.3 3.8-4.6 3.8-5.2 0-.6-2.4-3-5.2-5.2-10.9-8.2-21.7-12.1-33.8-12-4.4.1-8.2.3-8.4.5z"/><path d="M382.4 124.8c-1.5 2-3.1 3.9-3.4 4.2-.4.3-2.6 3.2-5.1 6.5-2.4 3.3-4.6 6.2-4.9 6.5-.3.3-1.7 2.1-3 4-1.4 1.9-3.2 4.2-4 5.1-.8.9-7 8.8-13.8 17.6-6.8 8.9-13.1 17-14 18.2-.9 1.1-3.1 4-4.9 6.3-3.4 4.6-15.6 20.3-17.7 22.8-.7.9-3.6 4.7-6.5 8.5-3 3.9-6.4 8.3-7.7 10-1.3 1.6-8.8 11.3-16.6 21.5-7.9 10.2-15.3 19.8-16.4 21.3l-2.2 2.7-20.3-9.9c-67.6-32.8-76.6-37.1-77.8-37.1-.6 0-1.8 1.2-2.8 2.7-1 1.6-2 3-2.3 3.3-.3.3-5.7 7.9-12 17-6.2 9.1-11.7 16.6-12.2 16.8-.4.2-.8 1-.8 1.8s-.4 1.4-1 1.4c-.5 0-1 .6-1 1.4 0 .8-.4 1.6-.8 1.8-.8.3-6.4 8.1-16 22.3-3 4.4-5.7 8.2-6.1 8.5-.3.3-1 1.2-1.6 2.1-2.2 3.6-8.7 13.2-9.6 14.2-.5.7-4.6 6.4-9 12.7-4.4 6.3-8.6 12.3-9.4 13.3-.8.9-1.5 2.2-1.5 2.7 0 .6-.4 1-1 1-.5 0-1 .7-1 1.5s-.4 1.5-.8 1.5-1.6 1.5-2.7 3.2c-1 1.8-2.1 3.5-2.5 3.8-.3.3-3.6 5-7.3 10.4l-6.7 9.9 4.9 3.3c2.7 1.9 5.4 3.5 5.9 3.6.5.2 3.7-3.5 7-8.2 3.3-4.7 6.5-9 7.1-9.7.6-.7 1.1-1.4 1.1-1.7 0-.3 2.5-4 5.6-8.3 7.2-10.1 7.3-10.3 14.3-20.3 3.3-4.7 6.5-9 7-9.7.6-.7 1.1-1.5 1.1-1.8 0-.5 3.4-5.3 7.7-11 .5-.6 2.2-3 3.8-5.5 1.7-2.5 3.4-5 3.8-5.5.4-.6 3.5-4.8 6.7-9.5 3.3-4.7 6.3-9 6.7-9.5.5-.6 3.3-4.6 6.2-9 3-4.4 5.9-8.2 6.3-8.3.4-.2.8-1 .8-1.8s.5-1.4 1-1.4c.6 0 1-.5 1-1.1 0-.6.6-1.7 1.3-2.4.6-.7 2.8-3.7 4.7-6.5 1.9-2.8 4.6-6.6 6-8.4l2.6-3.4 14.9 7.3c14.8 7.2 33.2 16.1 65.3 31.6 9 4.4 16.7 7.9 17.2 7.9s3-2.8 5.7-6.3c2.6-3.4 5.2-6.7 5.8-7.3.5-.7 1.9-2.4 3-3.9 1.7-2.4 10.6-13.9 20-26 3.3-4.2 21.3-27.5 23.6-30.5 2.5-3.4 7.5-9.7 10.7-13.9 1.5-1.8 4.8-6.1 7.4-9.5 2.6-3.3 5.4-6.9 6.2-7.9.9-.9 1.6-2 1.6-2.3 0-.3.6-1.1 1.3-1.8.6-.7 2.3-2.8 3.7-4.6 1.4-1.8 3-3.8 3.5-4.4.6-.6 3.1-3.8 5.5-7.1 2.5-3.3 5.1-6.6 5.7-7.5.7-.8 4.9-6.2 9.4-12 4.4-5.8 8.2-10.7 8.4-10.9.3-.3 25.3 18.5 29.5 22.1.8.7 3.2 2.6 5.5 4.2 2.2 1.6 4.5 3.4 5.1 4 .7.6 2.4 2 4 3.1 1.5 1.1 8.9 6.7 16.3 12.4 7.5 5.8 16.1 12.3 19.1 14.6 4.4 3.3 19.8 10.2 26.5 11.9 3.6.8 12.2 4 13.3 4.9.6.5 1.2.6 1.2.3 0-.4.9-.2 2.1.4 1.1.6 2.8 1.3 3.7 1.5 1.6.4 9.1 3.1 31.2 11.2 5.2 1.9 11.1 3.9 13 4.5 1.9.5 4 1.3 4.5 1.6.6.4 1.5.7 2 .8.6.1 3.5 1.1 6.5 2.2s9.6 3.5 14.5 5.2c5 1.8 10.1 3.7 11.5 4.3 1.4.6 3.1 1.1 3.7 1.3.7.1 4.3 1.3 8 2.7 25 9.3 24.1 9 27.9 10.2 1.2.4 2.7 1.6 3.3 2.8.6 1.2 1.9 3.4 2.9 4.9 3.8 5.8 16.8 26 17.7 27.5.6.9 1.4 2.2 1.8 2.7.5.6 3.4 5.1 6.6 10.1 3.2 4.9 9.2 14.3 13.4 20.8 4.3 6.5 7.7 12 7.7 12.3 0 .3.5 1 1.1 1.7.5.7 3.3 4.8 6.2 9.2 2.8 4.4 9.3 14.5 14.5 22.5 5.2 8 9.9 15.5 10.5 16.7.6 1.3 1.3 2.3 1.7 2.3.4 0 1.5 1.6 2.4 3.5 2.1 4.3 3.4 4.4 8.7.6 2.2-1.7 4.5-3.1 5.1-3.3.5-.2-1.7-4.5-5.1-9.6-3.4-5-6.1-9.6-6.1-10.2 0-.5-.4-1-1-1-.5 0-1-.7-1-1.5s-.4-1.5-.8-1.5c-.5 0-1.5-1.2-2.3-2.8-.7-1.5-4.4-7.3-8.1-12.9-3.8-5.6-6.8-10.5-6.8-10.8 0-.3-.5-1.1-1.1-1.8-1.2-1.4-13.8-20.7-20.7-31.7-2.6-4.1-5-7.7-5.4-7.8-.5-.2-.8-.7-.8-1.2s-1.7-3.5-3.8-6.7c-2.1-3.2-6.8-10.3-10.4-15.8-3.5-5.5-9.3-14.4-12.8-19.8-5.9-9.1-8.4-11.8-11.9-12.3-.7-.2-3.6-1.2-6.5-2.3-2.8-1.1-8.9-3.3-13.6-4.9-4.7-1.7-12.5-4.4-17.5-6.2-4.9-1.7-9.9-3.5-11-4-1.1-.5-6-2.3-11-4-17.3-6.1-28.1-9.9-39.5-14.1-6.3-2.3-13.3-4.7-15.5-5.5-2.2-.7-8.5-2.9-14-4.9-5.5-2-15.6-5.6-22.4-8.1-6.8-2.4-13.1-5-14-5.6-.8-.7-2.2-1.9-3.1-2.5-3.1-2.6-25.8-19.9-28.4-21.8-1.6-1.1-3.3-2.5-4-3-.6-.6-4-3.3-7.6-6-3.6-2.7-7-5.4-7.7-6-2.2-1.8-3.6-2.9-13.8-10.4-5.5-4.1-10.2-7.7-10.5-8-.3-.3-4.2-3.4-8.6-6.8l-8.2-6.3-2.8 3.8zM128.7 439.6c-.1.1-4.7.5-10.2.9-12.8.9-16.1 1.2-20.7 1.9-2.1.3-5.3.8-7 1.1-3.7.5-17 3-23.8 4.4-5.1 1.1-27.2 7.6-32.5 9.5-1.1.5-3.3 1.3-5 1.9-3.2 1.1-17.8 7.7-18.3 8.2-.2.1 1.1 3 2.8 6.4l3.1 6.1 3-1.5c2.8-1.5 6.3-3 8.4-3.5.6-.2 3.9-1.5 7.5-3s6.8-2.8 7.2-2.9c.4-.1 1.3-.3 2-.6 1.9-.6 13.1-3.8 14.3-4.1.6-.1 3.9-1 7.5-1.9 3.6-.9 7.6-1.9 9-2.1 1.4-.3 3.6-.7 5-.9 1.4-.3 3.6-.7 5-1 1.4-.2 5.2-.9 8.5-1.4 3.3-.6 9.2-1.3 13-1.6 3.9-.3 8.1-.7 9.5-1 3.4-.7 31.8-.7 40.5 0 12.2 1 19.5 1.9 26 3.2 1.7.3 3.9.7 5 .8 4.8.6 29.7 7.5 34 9.4 1.1.5 5.6 2.3 10 4.1 4.4 1.8 13.4 5.5 20 8.2 10.7 4.4 29.5 11.3 33.5 12.3.8.3 7.4 2 14.5 4 12 3.4 23.4 6.1 29.5 7 1.4.2 6.3 1.1 11 1.9 27.3 4.7 71.4 5.7 96 2.1 1.9-.3 4.9-.7 6.5-.9 5.8-.8 11.1-1.8 20-3.7 5-1.1 9.9-2.2 11.1-2.5 1.2-.2 7.9-2.3 15-4.6s13.1-4.2 13.4-4.3c2.8-.9 29.4-12.6 30.5-13.5 1.9-1.5 24.1-9.9 33-12.5 9.2-2.7 20.3-5.2 26.5-6.1 1.9-.2 4.5-.7 5.8-.9 8.3-1.9 50.7-2.7 63.7-1.3 14.7 1.6 17.1 1.9 19.5 2.5 1.4.3 3.9.7 5.5 1 1.7.2 7.3 1.3 12.5 2.4 5.2 1.1 10.6 2.2 12 2.5 5.7 1.2 27.2 7.5 36.5 10.8 5.5 1.9 10.3 3.2 10.7 3 1.3-.8 4.9-11.7 4.1-12.4-.4-.4-4.8-2.1-9.8-3.8-20.7-7.1-44.2-13.3-60.2-15.8-2.1-.3-4-.7-4.3-.9-.3-.2-3.7-.6-7.5-1-3.9-.4-7.3-.9-7.6-1.1-.6-.3-9.7-1.2-19.5-1.9-7.7-.5-30.4-.5-37.4 0-7.5.5-16.5 1.4-16.5 1.5 0 .1-1.3.3-3 .5-1.6.2-4.6.7-6.5 1-1.9.4-4.6.9-6 1.1-11.9 2-36.9 9.4-44.2 13.1-1.5.7-3 1.3-3.3 1.4-.7 0-7.6 3-17.5 7.6-4.7 2.2-10.6 5-13.2 6.1-4.6 2.1-27.2 9.9-30.6 10.6-.9.1-2.4.6-3.2.9-.8.3-4.9 1.3-9 2.2-9.7 2.2-10.1 2.2-14.6 2.9-2.2.3-5 .8-6.4 1.1-3.6.7-9.5 1.4-18 2.2-9.6 1-50.6.9-58.5-.1-3.3-.3-8-.9-10.5-1.2-2.5-.2-6.3-.7-8.5-1.1-2.2-.3-4.9-.7-6-.9-4.7-.7-14.2-2.6-17-3.4-1.6-.5-4.3-1.1-6-1.4-15.2-2.4-53.9-15.7-78.5-26.9-11.2-5-37.8-13.2-50-15.2-1.9-.3-4.2-.8-5-1-.8-.2-3.7-.6-6.5-1-2.7-.3-6.6-.8-8.5-1-8.6-1.1-40.5-2.5-41.3-1.9zm-11.1 84.1c-.2.2-3.4.6-7.1.9-3.7.2-8.2.6-9.9.9-1.7.2-5.1.7-7.6 1-2.5.3-6.5 1-9 1.5-2.5.6-5.8 1.2-7.5 1.5-4.6.7-7.5 1.4-9.5 2-1 .3-2.7.7-3.7.9-11.8 2.4-39.3 11.8-50 17.2l-2.2 1.1 2.9 6.1c1.6 3.4 3.1 6.2 3.3 6.2.2 0 3.3-1.3 6.9-2.9 5.9-2.7 16.1-6.6 19.8-7.5.8-.2 2.9-1 4.5-1.6 1.7-.6 3.7-1.3 4.5-1.5.8-.2 5.1-1.2 9.6-2.4 9.5-2.4 21.7-5.1 25.9-5.6 1.7-.3 4.8-.7 7-1 2.2-.4 5.1-.8 6.5-1 16.8-2.5 58.8-2.5 71 0 1.4.3 4.3.8 6.5 1.1 15.4 2 42.5 9.8 56.5 16.2 18.3 8.4 54.7 21.5 65.9 23.7.9.2 1.6.4 1.6.5 0 .1.7.3 1.5.5.8.1 3.3.7 5.5 1.3 2.2.6 5.1 1.3 6.5 1.6 1.4.3 5 1 8 1.6 3 .7 6.4 1.3 7.5 1.5 1.1.2 4.9.8 8.5 1.4 33.6 5.4 68.9 6 100 1.5 32.9-4.7 57.5-12.3 89.4-27.4 12.2-5.8 18.6-8.4 26.6-11 9.2-3 19.3-5.9 22.5-6.5 24.6-4.7 37-5.9 58-5.8 11.5 0 27.8.9 32 1.7 1.1.2 4.5.7 7.5 1.1 6.2.7 9.4 1.2 13 2 1.4.3 3.9.7 5.5 1 2.5.5 4.1.8 9.5 2 .3.1 1.9.4 3.5.8 1.7.4 3.9.9 5 1.2 1.1.2 3.6.9 5.5 1.4 1.9.6 6 1.7 9 2.4 3 .8 11 3.3 17.7 5.6 6.6 2.2 12.5 4.1 13.1 4.1.8 0 5.2-10.4 5.2-12.3 0-1.6-46.4-15.3-61.5-18.2-6.8-1.3-14.2-2.6-17.5-3-6.6-.9-10.6-1.5-13-2-12.1-2.3-58.4-2.3-71 0-1.4.2-4.1.6-6 .9-6.8.9-11.5 1.7-15.5 2.8-2.2.5-4.7 1.1-5.5 1.3-8.4 1.7-29.8 8.8-39.5 13.1-2.2 1-4.2 1.8-4.5 1.9-.3.1-5 2.3-10.5 4.9-21.1 10-34.8 14.8-58 20-11.9 2.7-14.4 3.1-30.5 5.1-19.5 2.6-51.9 2.3-74-.6-4.1-.5-9.5-1.2-12-1.5-2.5-.3-9.7-1.7-16-3-6.3-1.4-12.6-2.7-14-3-1.4-.2-7-1.8-12.5-3.4-5.5-1.7-10.9-3.2-11.9-3.5-5.3-1.3-29.9-10.2-37.3-13.6-20.9-9.4-46.4-18-61.1-20.5-1.2-.2-4.8-.8-8-1.4-16-2.7-21.8-3.2-45-3.4-11.6-.2-21.4-.1-21.6.1zm30.1 70.9c-.1.1-6 .5-13.2.8-13.6.6-19.1 1-25.3 2.1-4.6.7-9.7 1.5-13.7 2-1.6.2-3 .4-3 .5 0 .1-.7.3-1.5.5-10.6 2.1-14.8 3-22.5 5.1-17 4.7-42 13.8-44.7 16.3-.4.4.5 3.4 2.1 6.8l3 6.2 4.3-2.1c5.4-2.6 22.4-8.9 30.1-11.1 13.2-3.8 16.3-4.7 18.7-5.1 1.4-.2 4.8-.9 7.5-1.5 7.2-1.5 10.7-2.2 13.5-2.5 1.4-.2 4.5-.7 7-1 2.5-.4 6.1-.9 8-1.1 15.4-2.1 48.2-2.1 62-.1 1.9.3 5.7.8 8.4 1.1 2.7.3 5.2.8 5.6 1 .3.2 2.6.6 5 .9 2.5.3 6.3 1.1 8.5 1.6 2.2.6 5.1 1.3 6.4 1.6 7 1.5 26.3 8.4 40.4 14.5 31.4 13.6 73.6 26.1 98.7 29.4 2.5.3 6.1.8 8 1.1 15.9 2.3 23.5 2.8 46.5 2.8 20.3 0 34.6-.6 42.5-1.9 1.4-.2 4.3-.7 6.5-1 20-2.9 52.1-11.8 67.2-18.6 2.3-1 4.4-1.9 4.6-1.9.3 0 6.3-2.8 13.3-6.1 10.8-5.1 22.6-10.1 26.9-11.3.6-.2 1.7-.6 2.5-.9 2.3-.9 8.5-2.7 10.9-3.2 1.1-.3 3-.7 4.1-.9 1.1-.3 2.3-.7 2.8-.9.4-.3 2.3-.8 4.2-1.1 1.9-.3 4.6-.8 6-1.1 1.4-.3 4.5-.8 6.9-1.1 2.5-.3 4.8-.7 5.1-.9 2.9-1.8 51.6-2.7 64.5-1.2 12.7 1.4 16.3 1.9 26 3.7 11.2 2 13.2 2.5 21.9 4.6 3.4.8 6.8 1.6 7.6 1.8.8.2 3.5 1 6 1.7s5 1.3 5.5 1.5c.6.1 7.3 2.2 15 4.8 7.6 2.5 13.9 4.5 14 4.4 1.2-1.6 4.4-12.3 3.8-12.9-1.5-1.4-33.8-11.7-42.3-13.4-.8-.2-1.5-.4-1.5-.5 0-.1-.8-.3-1.7-.5-.9-.2-6.1-1.3-11.5-2.5-5.4-1.3-10.9-2.4-12.3-2.5-1.4-.1-3.4-.5-4.5-.8-1.1-.3-4-.9-6.5-1.2-2.5-.2-5.5-.7-6.7-.9-13.7-2.8-63.1-2.8-78.8-.1-1.6.2-4.3.7-6 .9-19.9 2.9-43.1 10.2-65.5 20.7-21.1 9.8-40.9 17.4-50.2 19.3-1.2.3-4.8 1.1-7.8 1.9-6.6 1.8-19.8 4.4-26 5.2-2.5.3-5.6.8-7 1-11.8 2.1-52.5 2.7-67.5 1.1-4.4-.4-9.6-1-11.5-1.1-8.5-.8-33.9-5.7-46-8.8-23.5-6.2-49.6-15.6-75.5-27.3-8.2-3.7-35.4-11.5-45-12.9-1.1-.2-3.3-.6-5-.9-1.6-.3-5-.8-7.5-1.2-2.5-.3-5.6-.7-7-1-3.4-.6-33.9-2.2-34.3-1.8z"/></svg>