<?xml version="1.0" standalone="no"?>
<!DOCTYPE svg PUBLIC "-//W3C//DTD SVG 20010904//EN"
 "http://www.w3.org/TR/2001/REC-SVG-20010904/DTD/svg10.dtd">
<svg version="1.0" xmlns="http://www.w3.org/2000/svg"
 width="784.000000pt" height="784.000000pt" viewBox="0 0 784.000000 784.000000"
 preserveAspectRatio="xMidYMid meet">
<metadata>
Created by potrace 1.14, written by Peter Selinger 2001-2017
</metadata>
<g transform="translate(0.000000,784.000000) scale(0.100000,-0.100000)"
fill="#000000" stroke="none">
<path d="M3136 6643 c-2 -3 -10 -6 -18 -7 -7 -1 -30 -10 -52 -19 -21 -9 -40
-17 -43 -17 -24 0 -193 -164 -193 -187 0 -6 -3 -13 -7 -15 -15 -6 -71 -124
-83 -176 -32 -135 7 -238 141 -377 50 -52 97 -95 103 -95 6 0 20 12 31 27 11
14 27 34 35 42 9 9 43 48 75 86 33 39 62 72 65 75 3 3 71 81 150 175 179 209
186 218 232 269 21 23 38 46 38 52 0 6 -24 30 -52 52 -109 82 -217 121 -338
120 -44 -1 -82 -3 -84 -5z"/>
<path d="M3824 6592 c-15 -20 -31 -39 -34 -42 -4 -3 -26 -32 -51 -65 -24 -33
-46 -62 -49 -65 -3 -3 -17 -21 -30 -40 -14 -19 -32 -42 -40 -51 -8 -9 -70 -88
-138 -176 -68 -89 -131 -170 -140 -182 -9 -11 -31 -40 -49 -63 -34 -46 -156
-203 -177 -228 -7 -9 -36 -47 -65 -85 -30 -39 -64 -83 -77 -100 -13 -16 -88
-113 -166 -215 -79 -102 -153 -198 -164 -213 l-22 -27 -203 99 c-676 328 -766
371 -778 371 -6 0 -18 -12 -28 -27 -10 -16 -20 -30 -23 -33 -3 -3 -57 -79
-120 -170 -62 -91 -117 -166 -122 -168 -4 -2 -8 -10 -8 -18 0 -8 -4 -14 -10
-14 -5 0 -10 -6 -10 -14 0 -8 -4 -16 -8 -18 -8 -3 -64 -81 -160 -223 -30 -44
-57 -82 -61 -85 -3 -3 -10 -12 -16 -21 -22 -36 -87 -132 -96 -142 -5 -7 -46
-64 -90 -127 -44 -63 -86 -123 -94 -133 -8 -9 -15 -22 -15 -27 0 -6 -4 -10
-10 -10 -5 0 -10 -7 -10 -15 0 -8 -4 -15 -8 -15 -4 0 -16 -15 -27 -32 -10 -18
-21 -35 -25 -38 -3 -3 -36 -50 -73 -104 l-67 -99 49 -33 c27 -19 54 -35 59
-36 5 -2 37 35 70 82 33 47 65 90 71 97 6 7 11 14 11 17 0 3 25 40 56 83 72
101 73 103 143 203 33 47 65 90 70 97 6 7 11 15 11 18 0 5 34 53 77 110 5 6
22 30 38 55 17 25 34 50 38 55 4 6 35 48 67 95 33 47 63 90 67 95 5 6 33 46
62 90 30 44 59 82 63 83 4 2 8 10 8 18 0 8 5 14 10 14 6 0 10 5 10 11 0 6 6
17 13 24 6 7 28 37 47 65 19 28 46 66 60 84 l26 34 149 -73 c148 -72 332 -161
653 -316 90 -44 167 -79 172 -79 5 0 30 28 57 63 26 34 52 67 58 73 5 7 19 24
30 39 17 24 106 139 200 260 33 42 213 275 236 305 25 34 75 97 107 139 15 18
48 61 74 95 26 33 54 69 62 79 9 9 16 20 16 23 0 3 6 11 13 18 6 7 23 28 37
46 14 18 30 38 35 44 6 6 31 38 55 71 25 33 51 66 57 75 7 8 49 62 94 120 44
58 82 107 84 109 3 3 253 -185 295 -221 8 -7 32 -26 55 -42 22 -16 45 -34 51
-40 7 -6 24 -20 40 -31 15 -11 89 -67 163 -124 75 -58 161 -123 191 -146 44
-33 198 -102 265 -119 36 -8 122 -40 133 -49 6 -5 12 -6 12 -3 0 4 9 2 21 -4
11 -6 28 -13 37 -15 16 -4 91 -31 312 -112 52 -19 111 -39 130 -45 19 -5 40
-13 45 -16 6 -4 15 -7 20 -8 6 -1 35 -11 65 -22 30 -11 96 -35 145 -52 50 -18
101 -37 115 -43 14 -6 31 -11 37 -13 7 -1 43 -13 80 -27 250 -93 241 -90 279
-102 12 -4 27 -16 33 -28 6 -12 19 -34 29 -49 38 -58 168 -260 177 -275 6 -9
14 -22 18 -27 5 -6 34 -51 66 -101 32 -49 92 -143 134 -208 43 -65 77 -120 77
-123 0 -3 5 -10 11 -17 5 -7 33 -48 62 -92 28 -44 93 -145 145 -225 52 -80 99
-155 105 -167 6 -13 13 -23 17 -23 4 0 15 -16 24 -35 21 -43 34 -44 87 -6 22
17 45 31 51 33 5 2 -17 45 -51 96 -34 50 -61 96 -61 102 0 5 -4 10 -10 10 -5
0 -10 7 -10 15 0 8 -4 15 -8 15 -5 0 -15 12 -23 28 -7 15 -44 73 -81 129 -38
56 -68 105 -68 108 0 3 -5 11 -11 18 -12 14 -138 207 -207 317 -26 41 -50 77
-54 78 -5 2 -8 7 -8 12 0 5 -17 35 -38 67 -21 32 -68 103 -104 158 -35 55 -93
144 -128 198 -59 91 -84 118 -119 123 -7 2 -36 12 -65 23 -28 11 -89 33 -136
49 -47 17 -125 44 -175 62 -49 17 -99 35 -110 40 -11 5 -60 23 -110 40 -173
61 -281 99 -395 141 -63 23 -133 47 -155 55 -22 7 -85 29 -140 49 -55 20 -156
56 -224 81 -68 24 -131 50 -140 56 -8 7 -22 19 -31 25 -31 26 -258 199 -284
218 -16 11 -33 25 -40 30 -6 6 -40 33 -76 60 -36 27 -70 54 -77 60 -22 18 -36
29 -138 104 -55 41 -102 77 -105 80 -3 3 -42 34 -86 68 l-82 63 -28 -38z"/>
<path d="M1287 3444 c-1 -1 -47 -5 -102 -9 -128 -9 -161 -12 -207 -19 -21 -3
-53 -8 -70 -11 -37 -5 -170 -30 -238 -44 -51 -11 -272 -76 -325 -95 -11 -5
-33 -13 -50 -19 -32 -11 -178 -77 -183 -82 -2 -1 11 -30 28 -64 l31 -61 30 15
c28 15 63 30 84 35 6 2 39 15 75 30 36 15 68 28 72 29 4 1 13 3 20 6 19 6 131
38 143 41 6 1 39 10 75 19 36 9 76 19 90 21 14 3 36 7 50 9 14 3 36 7 50 10
14 2 52 9 85 14 33 6 92 13 130 16 39 3 81 7 95 10 34 7 318 7 405 0 122 -10
195 -19 260 -32 17 -3 39 -7 50 -8 48 -6 297 -75 340 -94 11 -5 56 -23 100
-41 44 -18 134 -55 200 -82 107 -44 295 -113 335 -123 8 -3 74 -20 145 -40
120 -34 234 -61 295 -70 14 -2 63 -11 110 -19 273 -47 714 -57 960 -21 19 3
49 7 65 9 58 8 111 18 200 37 50 11 99 22 111 25 12 2 79 23 150 46 71 23 131
42 134 43 28 9 294 126 305 135 19 15 241 99 330 125 92 27 203 52 265 61 19
2 45 7 58 9 83 19 507 27 637 13 147 -16 171 -19 195 -25 14 -3 39 -7 55 -10
17 -2 73 -13 125 -24 52 -11 106 -22 120 -25 57 -12 272 -75 365 -108 55 -19
103 -32 107 -30 13 8 49 117 41 124 -4 4 -48 21 -98 38 -207 71 -442 133 -602
158 -21 3 -40 7 -43 9 -3 2 -37 6 -75 10 -39 4 -73 9 -76 11 -6 3 -97 12 -195
19 -77 5 -304 5 -374 0 -75 -5 -165 -14 -165 -15 0 -1 -13 -3 -30 -5 -16 -2
-46 -7 -65 -10 -19 -4 -46 -9 -60 -11 -119 -20 -369 -94 -442 -131 -15 -7 -30
-13 -33 -14 -7 0 -76 -30 -175 -76 -47 -22 -106 -50 -132 -61 -46 -21 -272
-99 -306 -106 -9 -1 -24 -6 -32 -9 -8 -3 -49 -13 -90 -22 -97 -22 -101 -22
-146 -29 -22 -3 -50 -8 -64 -11 -36 -7 -95 -14 -180 -22 -96 -10 -506 -9 -585
1 -33 3 -80 9 -105 12 -25 2 -63 7 -85 11 -22 3 -49 7 -60 9 -47 7 -142 26
-170 34 -16 5 -43 11 -60 14 -152 24 -539 157 -785 269 -112 50 -378 132 -500
152 -19 3 -42 8 -50 10 -8 2 -37 6 -65 10 -27 3 -66 8 -85 10 -86 11 -405 25
-413 19z"/>
<path d="M1176 2603 c-2 -2 -34 -6 -71 -9 -37 -2 -82 -6 -99 -9 -17 -2 -51 -7
-76 -10 -25 -3 -65 -10 -90 -15 -25 -6 -58 -12 -75 -15 -46 -7 -75 -14 -95
-20 -10 -3 -27 -7 -37 -9 -118 -24 -393 -118 -500 -172 l-22 -11 29 -61 c16
-34 31 -62 33 -62 2 0 33 13 69 29 59 27 161 66 198 75 8 2 29 10 45 16 17 6
37 13 45 15 8 2 51 12 96 24 95 24 217 51 259 56 17 3 48 7 70 10 22 4 51 8
65 10 168 25 588 25 710 0 14 -3 43 -8 65 -11 154 -20 425 -98 565 -162 183
-84 547 -215 659 -237 9 -2 16 -4 16 -5 0 -1 7 -3 15 -5 8 -1 33 -7 55 -13 22
-6 51 -13 65 -16 14 -3 50 -10 80 -16 30 -7 64 -13 75 -15 11 -2 49 -8 85 -14
336 -54 689 -60 1000 -15 329 47 575 123 894 274 122 58 186 84 266 110 92 30
193 59 225 65 246 47 370 59 580 58 115 0 278 -9 320 -17 11 -2 45 -7 75 -11
62 -7 94 -12 130 -20 14 -3 39 -7 55 -10 25 -5 41 -8 95 -20 3 -1 19 -4 35 -8
17 -4 39 -9 50 -12 11 -2 36 -9 55 -14 19 -6 60 -17 90 -24 30 -8 110 -33 177
-56 66 -22 125 -41 131 -41 8 0 52 104 52 123 0 16 -464 153 -615 182 -68 13
-142 26 -175 30 -66 9 -106 15 -130 20 -121 23 -584 23 -710 0 -14 -2 -41 -6
-60 -9 -68 -9 -115 -17 -155 -28 -22 -5 -47 -11 -55 -13 -84 -17 -298 -88
-395 -131 -22 -10 -42 -18 -45 -19 -3 -1 -50 -23 -105 -49 -211 -100 -348
-148 -580 -200 -119 -27 -144 -31 -305 -51 -195 -26 -519 -23 -740 6 -41 5
-95 12 -120 15 -25 3 -97 17 -160 30 -63 14 -126 27 -140 30 -14 2 -70 18
-125 34 -55 17 -109 32 -119 35 -53 13 -299 102 -373 136 -209 94 -464 180
-611 205 -12 2 -48 8 -80 14 -160 27 -218 32 -450 34 -116 2 -214 1 -216 -1z"/>
<path d="M1477 1894 c-1 -1 -60 -5 -132 -8 -136 -6 -191 -10 -253 -21 -46 -7
-97 -15 -137 -20 -16 -2 -30 -4 -30 -5 0 -1 -7 -3 -15 -5 -106 -21 -148 -30
-225 -51 -170 -47 -420 -138 -447 -163 -4 -4 5 -34 21 -68 l30 -62 43 21 c54
26 224 89 301 111 132 38 163 47 187 51 14 2 48 9 75 15 72 15 107 22 135 25
14 2 45 7 70 10 25 4 61 9 80 11 154 21 482 21 620 1 19 -3 57 -8 84 -11 27
-3 52 -8 56 -10 3 -2 26 -6 50 -9 25 -3 63 -11 85 -16 22 -6 51 -13 64 -16 70
-15 263 -84 404 -145 314 -136 736 -261 987 -294 25 -3 61 -8 80 -11 159 -23
235 -28 465 -28 203 0 346 6 425 19 14 2 43 7 65 10 200 29 521 118 672 186
23 10 44 19 46 19 3 0 63 28 133 61 108 51 226 101 269 113 6 2 17 6 25 9 23
9 85 27 109 32 11 3 30 7 41 9 11 3 23 7 28 9 4 3 23 8 42 11 19 3 46 8 60 11
14 3 45 8 69 11 25 3 48 7 51 9 29 18 516 27 645 12 127 -14 163 -19 260 -37
112 -20 132 -25 219 -46 34 -8 68 -16 76 -18 8 -2 35 -10 60 -17 25 -7 50 -13
55 -15 6 -1 73 -22 150 -48 76 -25 139 -45 140 -44 12 16 44 123 38 129 -15
14 -338 117 -423 134 -8 2 -15 4 -15 5 0 1 -8 3 -17 5 -9 2 -61 13 -115 25
-54 13 -109 24 -123 25 -14 1 -34 5 -45 8 -11 3 -40 9 -65 12 -25 2 -55 7 -67
9 -137 28 -631 28 -788 1 -16 -2 -43 -7 -60 -9 -199 -29 -431 -102 -655 -207
-211 -98 -409 -174 -502 -193 -12 -3 -48 -11 -78 -19 -66 -18 -198 -44 -260
-52 -25 -3 -56 -8 -70 -10 -118 -21 -525 -27 -675 -11 -44 4 -96 10 -115 11
-85 8 -339 57 -460 88 -235 62 -496 156 -755 273 -82 37 -354 115 -450 129
-11 2 -33 6 -50 9 -16 3 -50 8 -75 12 -25 3 -56 7 -70 10 -34 6 -339 22 -343
18z"/>
</g>
</svg>
