<svg width="30" height="30" fill="none" xmlns="http://www.w3.org/2000/svg"><path d="M24.44 3.746a2.79 2.79 0 00-.874.21h-.004c-.267.105-1.537.64-3.469 1.45l-6.92 2.914c-4.966 2.091-9.848 4.15-9.848 4.15l.058-.023s-.336.11-.688.352a1.903 1.903 0 00-.55.531c-.172.254-.31.64-.259 1.041.085.677.523 1.083.838 1.307.319.227.623.333.623.333h.007l4.578 1.542c.205.659 1.395 4.57 1.681 5.471.169.538.333.875.538 1.132.1.131.216.24.356.329.072.042.15.075.23.1l-.047-.012c.014.004.026.015.036.019.037.01.063.014.11.021.725.22 1.307-.23 1.307-.23l.033-.027 2.703-2.46 4.53 3.475.103.044c.944.414 1.9.184 2.406-.223.509-.41.707-.934.707-.934l.032-.084L26.158 6.24c.1-.442.125-.857.015-1.259A1.694 1.694 0 0025.441 4a1.76 1.76 0 00-1-.254zm-.094 1.922c-.004.06.007.053-.019.166v.01L20.86 23.592c-.015.026-.04.081-.11.136-.072.058-.13.095-.435-.026l-5.541-4.248-3.347 3.05.703-4.49 9.053-8.437c.373-.347.248-.42.248-.42.026-.426-.563-.125-.563-.125L9.452 16.103l-.004-.02-5.471-1.841v-.004l-.014-.003a.258.258 0 00.028-.011l.03-.015.029-.01s4.885-2.06 9.851-4.15l6.918-2.915a730.98 730.98 0 013.431-1.435c.077-.03.04-.03.096-.03z" fill="#000"/></svg>