<svg width="30" height="30" fill="none" xmlns="http://www.w3.org/2000/svg"><path fill-rule="evenodd" clip-rule="evenodd" d="M22.973 7.035a11.132 11.132 0 00-7.926-3.285c-6.174 0-11.203 5.025-11.203 11.198a11.14 11.14 0 001.494 5.6L3.75 26.352l5.94-1.56a11.21 11.21 0 005.353 1.366h.005c6.174 0 11.198-5.024 11.202-11.202 0-2.992-1.164-5.804-3.277-7.922v.001zm-7.926 17.23h-.004a9.31 9.31 0 01-4.739-1.296l-.34-.202-3.527.924.941-3.436-.22-.352a9.285 9.285 0 01-1.424-4.954c0-5.13 4.178-9.305 9.317-9.305a9.246 9.246 0 016.58 2.728 9.26 9.26 0 012.724 6.584c0 5.135-4.178 9.31-9.31 9.31h.002zm5.105-6.973c-.279-.139-1.656-.815-1.912-.907-.256-.096-.443-.14-.63.138-.188.282-.722.913-.886 1.1-.161.182-.326.208-.605.069-.28-.14-1.182-.436-2.252-1.392-.831-.74-1.395-1.659-1.556-1.938-.165-.28-.018-.43.121-.571.128-.124.281-.326.421-.49.139-.161.188-.278.281-.466.092-.186.045-.351-.025-.49s-.629-1.52-.863-2.08c-.228-.546-.459-.469-.63-.48-.162-.007-.348-.007-.535-.007-.187 0-.491.07-.748.352-.256.278-.978.956-.978 2.332 0 1.377 1.003 2.71 1.144 2.897.139.183 1.973 3.01 4.781 4.223.52.225 1.053.421 1.594.59.67.211 1.282.182 1.765.112.538-.08 1.655-.677 1.89-1.332.231-.652.231-1.213.16-1.33-.069-.117-.255-.187-.537-.33z" fill="#000"/></svg>