<svg width="188" height="40" fill="none" xmlns="http://www.w3.org/2000/svg"><path d="M71.986 14.216V26h-1.424V14.216h1.424zm11.901 8.136c-.656.021-1.216.075-1.68.16-.459.08-.835.187-1.128.32-.288.133-.499.29-.632.472a1.03 1.03 0 00-.192.608c0 .213.035.397.104.552.07.155.163.283.28.384.123.096.264.168.424.216.165.043.341.064.528.064.25 0 .48-.024.688-.072a3.027 3.027 0 001.112-.568 4.36 4.36 0 00.496-.456v-1.68zm-4.6-3.312c.448-.432.93-.755 1.448-.968a4.471 4.471 0 011.72-.32c.453 0 .856.075 1.208.224.352.15.648.357.888.624s.421.59.544.968c.123.379.184.795.184 1.248V26h-.632a.653.653 0 01-.32-.064c-.075-.048-.133-.139-.176-.272l-.16-.768a8.67 8.67 0 01-.624.528c-.203.15-.416.277-.64.384a3.446 3.446 0 01-.72.232c-.25.059-.53.088-.84.088-.315 0-.61-.043-.888-.128a2.147 2.147 0 01-.728-.4 1.936 1.936 0 01-.488-.664 2.41 2.41 0 01-.176-.96c0-.32.088-.627.264-.92.176-.299.461-.563.856-.792.395-.23.91-.416 1.544-.56.635-.15 1.413-.235 2.336-.256v-.632c0-.63-.136-1.104-.408-1.424-.272-.325-.67-.488-1.192-.488-.352 0-.648.045-.888.136-.235.085-.44.184-.616.296-.17.107-.32.205-.448.296a.641.641 0 01-.368.128.425.425 0 01-.248-.072.755.755 0 01-.176-.192l-.256-.456zm14.705.032c.176-.197.363-.376.56-.536.197-.16.405-.296.624-.408a3.258 3.258 0 011.512-.36c.443 0 .832.075 1.168.224.342.144.624.352.848.624.23.267.403.59.52.968.117.379.176.797.176 1.256V26h-1.432v-5.16c0-.613-.141-1.088-.424-1.424-.277-.341-.701-.512-1.272-.512-.421 0-.816.101-1.184.304a3.916 3.916 0 00-1.008.824V26h-1.432v-8.104h.856c.203 0 .328.099.376.296l.112.88zm15.602 2.968c.288 0 .541-.04.76-.12.219-.08.403-.192.552-.336a1.39 1.39 0 00.336-.512 1.9 1.9 0 00.112-.664c0-.496-.152-.89-.456-1.184-.299-.293-.733-.44-1.304-.44-.576 0-1.016.147-1.32.44-.299.293-.448.688-.448 1.184 0 .24.037.461.112.664a1.474 1.474 0 00.896.848c.219.08.472.12.76.12zm2.568 4.4a.684.684 0 00-.168-.48 1.117 1.117 0 00-.456-.288 2.718 2.718 0 00-.656-.144 11.431 11.431 0 00-.8-.072l-.848-.048a10.034 10.034 0 01-.832-.08 2.244 2.244 0 00-.736.528c-.187.208-.28.453-.28.736 0 .181.045.35.136.504.096.16.24.296.432.408.192.117.432.208.72.272.293.07.637.104 1.032.104a4.66 4.66 0 001.032-.104c.304-.07.56-.168.768-.296.213-.128.376-.28.488-.456.112-.176.168-.37.168-.584zm1.448-8.224v.528c0 .176-.112.288-.336.336l-.92.12c.181.352.272.741.272 1.168a2.478 2.478 0 01-.856 1.904c-.267.23-.587.405-.96.528a3.873 3.873 0 01-1.216.184c-.379 0-.736-.045-1.072-.136a1.404 1.404 0 00-.392.344.582.582 0 00-.136.36c0 .192.077.339.232.44.16.096.368.165.624.208.256.043.547.07.872.08.331.01.667.03 1.008.056a8.65 8.65 0 011.008.12c.331.059.624.155.88.288.256.133.461.317.616.552.16.235.24.539.24.912 0 .347-.088.683-.264 1.008a2.65 2.65 0 01-.744.864 3.724 3.724 0 01-1.2.608c-.469.155-1 .232-1.592.232a6.098 6.098 0 01-1.552-.176 3.635 3.635 0 01-1.104-.472 2.082 2.082 0 01-.664-.688 1.624 1.624 0 01-.216-.808c0-.4.125-.739.376-1.016s.595-.499 1.032-.664a1.532 1.532 0 01-.576-.424c-.139-.181-.208-.424-.208-.728 0-.117.021-.237.064-.36.043-.128.107-.253.192-.376a2.08 2.08 0 01.776-.656c-.4-.224-.712-.52-.936-.888-.224-.373-.336-.805-.336-1.296 0-.395.075-.752.224-1.072.155-.325.368-.6.64-.824a2.88 2.88 0 01.968-.528 4.005 4.005 0 011.24-.184c.352 0 .68.04.984.12.304.075.581.187.832.336h2.2zm11.971 2.848c0-.33-.048-.632-.144-.904a1.898 1.898 0 00-.408-.712 1.722 1.722 0 00-.648-.464 2.153 2.153 0 00-.872-.168c-.682 0-1.224.2-1.624.6-.394.395-.64.944-.736 1.648h4.432zm1.152 3.8a2.77 2.77 0 01-.632.56 4.008 4.008 0 01-.792.384 4.66 4.66 0 01-.864.224c-.298.053-.594.08-.888.08-.56 0-1.077-.093-1.552-.28a3.52 3.52 0 01-1.224-.832 3.896 3.896 0 01-.8-1.36c-.192-.539-.288-1.157-.288-1.856 0-.565.086-1.093.256-1.584a3.75 3.75 0 01.752-1.272 3.384 3.384 0 011.192-.848c.47-.208.998-.312 1.584-.312.486 0 .934.083 1.344.248.416.16.774.395 1.072.704.304.304.542.683.712 1.136.171.448.256.96.256 1.536 0 .224-.024.373-.072.448-.048.075-.138.112-.272.112h-5.416c.016.512.086.957.208 1.336.128.379.304.696.528.952.224.25.491.44.8.568.31.123.656.184 1.04.184.358 0 .664-.04.92-.12.262-.085.486-.176.672-.272a5.17 5.17 0 00.464-.264c.128-.085.238-.128.328-.128.118 0 .208.045.272.136l.4.52zm18.859 1.264c-.64 0-1.133-.179-1.48-.536-.341-.357-.512-.872-.512-1.544v-4.96h-.976a.331.331 0 01-.216-.072c-.058-.053-.088-.133-.088-.24v-.568l1.328-.168.328-2.504a.341.341 0 01.104-.192.322.322 0 01.224-.08h.72v2.792h2.344v1.032h-2.344v4.864c0 .341.083.595.248.76a.868.868 0 00.64.248c.15 0 .278-.019.384-.056.112-.043.208-.088.288-.136.08-.048.147-.09.2-.128.059-.043.11-.064.152-.064.075 0 .142.045.2.136l.416.68c-.245.23-.541.41-.888.544a3.068 3.068 0 01-1.072.192zm11.816-8.36a4.14 4.14 0 011.6.296c.475.197.88.477 1.216.84.336.363.592.803.768 1.32.181.512.272 1.085.272 1.72 0 .64-.091 1.216-.272 1.728a3.64 3.64 0 01-.768 1.312 3.425 3.425 0 01-1.216.84 4.235 4.235 0 01-1.6.288 4.32 4.32 0 01-1.616-.288 3.425 3.425 0 01-1.216-.84 3.735 3.735 0 01-.776-1.312 5.296 5.296 0 01-.264-1.728c0-.635.088-1.208.264-1.72a3.73 3.73 0 01.776-1.32 3.425 3.425 0 011.216-.84 4.217 4.217 0 011.616-.296zm0 7.232c.8 0 1.397-.267 1.792-.8.395-.539.592-1.288.592-2.248 0-.965-.197-1.717-.592-2.256-.395-.539-.992-.808-1.792-.808-.405 0-.76.07-1.064.208a2.01 2.01 0 00-.752.6 2.754 2.754 0 00-.448.968 5.255 5.255 0 00-.144 1.288c0 .96.197 1.71.592 2.248.4.533 1.005.8 1.816.8zm17.526-7.104V26h-.848c-.203 0-.331-.099-.384-.296l-.112-.872a4.52 4.52 0 01-1.184.944c-.437.235-.939.352-1.504.352-.443 0-.835-.072-1.176-.216a2.368 2.368 0 01-.848-.624 2.68 2.68 0 01-.52-.968 4.418 4.418 0 01-.168-1.256v-5.168h1.424v5.168c0 .613.139 1.088.416 1.424.283.336.712.504 1.288.504.421 0 .813-.099 1.176-.296.368-.203.707-.48 1.016-.832v-5.968h1.424zm8.81 1.624c.256-.555.571-.987.944-1.296.373-.315.829-.472 1.368-.472.171 0 .333.019.488.056.16.037.301.096.424.176l-.104 1.064c-.032.133-.112.2-.24.2-.075 0-.184-.016-.328-.048a2.26 2.26 0 00-.488-.048c-.256 0-.485.037-.688.112a1.625 1.625 0 00-.536.336 2.367 2.367 0 00-.424.544 4.682 4.682 0 00-.336.736V26h-1.432v-8.104h.816c.155 0 .261.03.32.088.059.059.099.16.12.304l.096 1.232z" fill="#000"/><path d="M1 25.828c2.696-1.348 9.705-3.32 16.175-.426 8.087 3.618 15.323 2.98 20.431.426 5.108-2.554 11.067-2.129 16.813 0M1 31.79c2.696-1.348 9.705-3.32 16.175-.426 8.087 3.618 15.323 2.98 20.431.425 5.108-2.553 11.067-2.128 16.813 0" stroke="#000"/><path d="M1.851 36.898c2.696-1.348 9.705-3.32 16.175-.426 8.087 3.618 15.323 2.98 20.431.426 5.108-2.554 11.067-2.128 16.813 0M4.405 19.868l7.45-10.64 7.022 3.404 8.726-11.28 6.385 4.896 11.918 4.256 6.598 10.216" stroke="#000"/><path d="M25.129 1.778l-3.83 4.47c-.64-.639-2.172-1.618-.64-3.831 1.533-2.213 3.619-1.348 4.47-.639z" fill="#000" stroke="#000"/></svg>