<svg width="188" height="40" viewBox="0 0 188 40" fill="none" xmlns="http://www.w3.org/2000/svg">
<path d="M71.9857 14.216V26H70.5617V14.216H71.9857ZM83.887 22.352C83.231 22.3733 82.671 22.4267 82.207 22.512C81.7483 22.592 81.3723 22.6987 81.079 22.832C80.791 22.9653 80.5803 23.1227 80.447 23.304C80.319 23.4853 80.255 23.688 80.255 23.912C80.255 24.1253 80.2897 24.3093 80.359 24.464C80.4283 24.6187 80.5217 24.7467 80.639 24.848C80.7617 24.944 80.903 25.016 81.063 25.064C81.2283 25.1067 81.4043 25.128 81.591 25.128C81.8417 25.128 82.071 25.104 82.279 25.056C82.487 25.0027 82.6817 24.928 82.863 24.832C83.0497 24.736 83.2257 24.6213 83.391 24.488C83.5617 24.3547 83.727 24.2027 83.887 24.032V22.352ZM79.287 19.04C79.735 18.608 80.2177 18.2853 80.735 18.072C81.2523 17.8587 81.8257 17.752 82.455 17.752C82.9083 17.752 83.311 17.8267 83.663 17.976C84.015 18.1253 84.311 18.3333 84.551 18.6C84.791 18.8667 84.9723 19.1893 85.095 19.568C85.2177 19.9467 85.279 20.3627 85.279 20.816V26H84.647C84.5083 26 84.4017 25.9787 84.327 25.936C84.2523 25.888 84.1937 25.7973 84.151 25.664L83.991 24.896C83.7777 25.0933 83.5697 25.2693 83.367 25.424C83.1643 25.5733 82.951 25.7013 82.727 25.808C82.503 25.9093 82.263 25.9867 82.007 26.04C81.7563 26.0987 81.4763 26.128 81.167 26.128C80.8523 26.128 80.5563 26.0853 80.279 26C80.0017 25.9093 79.759 25.776 79.551 25.6C79.3483 25.424 79.1857 25.2027 79.063 24.936C78.9457 24.664 78.887 24.344 78.887 23.976C78.887 23.656 78.975 23.3493 79.151 23.056C79.327 22.7573 79.6123 22.4933 80.007 22.264C80.4017 22.0347 80.9163 21.848 81.551 21.704C82.1857 21.5547 82.9643 21.4693 83.887 21.448V20.816C83.887 20.1867 83.751 19.712 83.479 19.392C83.207 19.0667 82.8097 18.904 82.287 18.904C81.935 18.904 81.639 18.9493 81.399 19.04C81.1643 19.1253 80.959 19.224 80.783 19.336C80.6123 19.4427 80.463 19.5413 80.335 19.632C80.2123 19.7173 80.0897 19.76 79.967 19.76C79.871 19.76 79.7883 19.736 79.719 19.688C79.6497 19.6347 79.591 19.5707 79.543 19.496L79.287 19.04ZM93.9921 19.072C94.1681 18.8747 94.3548 18.696 94.5521 18.536C94.7495 18.376 94.9575 18.24 95.1761 18.128C95.4001 18.0107 95.6348 17.9227 95.8801 17.864C96.1308 17.8 96.4001 17.768 96.6881 17.768C97.1308 17.768 97.5201 17.8427 97.8561 17.992C98.1975 18.136 98.4801 18.344 98.7041 18.616C98.9335 18.8827 99.1068 19.2053 99.2241 19.584C99.3415 19.9627 99.4001 20.3813 99.4001 20.84V26H97.9681V20.84C97.9681 20.2267 97.8268 19.752 97.5441 19.416C97.2668 19.0747 96.8428 18.904 96.2721 18.904C95.8508 18.904 95.4561 19.0053 95.0881 19.208C94.7255 19.4107 94.3895 19.6853 94.0801 20.032V26H92.6481V17.896H93.5041C93.7068 17.896 93.8321 17.9947 93.8801 18.192L93.9921 19.072ZM109.594 22.04C109.882 22.04 110.135 22 110.354 21.92C110.573 21.84 110.757 21.728 110.906 21.584C111.055 21.44 111.167 21.2693 111.242 21.072C111.317 20.8693 111.354 20.648 111.354 20.408C111.354 19.912 111.202 19.5173 110.898 19.224C110.599 18.9307 110.165 18.784 109.594 18.784C109.018 18.784 108.578 18.9307 108.274 19.224C107.975 19.5173 107.826 19.912 107.826 20.408C107.826 20.648 107.863 20.8693 107.938 21.072C108.018 21.2693 108.133 21.44 108.282 21.584C108.431 21.728 108.615 21.84 108.834 21.92C109.053 22 109.306 22.04 109.594 22.04ZM112.162 26.44C112.162 26.2427 112.106 26.0827 111.994 25.96C111.882 25.8373 111.73 25.7413 111.538 25.672C111.351 25.6027 111.133 25.5547 110.882 25.528C110.631 25.496 110.365 25.472 110.082 25.456C109.805 25.44 109.522 25.424 109.234 25.408C108.946 25.392 108.669 25.3653 108.402 25.328C108.103 25.4667 107.858 25.6427 107.666 25.856C107.479 26.064 107.386 26.3093 107.386 26.592C107.386 26.7733 107.431 26.9413 107.522 27.096C107.618 27.256 107.762 27.392 107.954 27.504C108.146 27.6213 108.386 27.712 108.674 27.776C108.967 27.8453 109.311 27.88 109.706 27.88C110.09 27.88 110.434 27.8453 110.738 27.776C111.042 27.7067 111.298 27.608 111.506 27.48C111.719 27.352 111.882 27.2 111.994 27.024C112.106 26.848 112.162 26.6533 112.162 26.44ZM113.61 18.216V18.744C113.61 18.92 113.498 19.032 113.274 19.08L112.354 19.2C112.535 19.552 112.626 19.9413 112.626 20.368C112.626 20.7627 112.549 21.1227 112.394 21.448C112.245 21.768 112.037 22.0427 111.77 22.272C111.503 22.5013 111.183 22.6773 110.81 22.8C110.437 22.9227 110.031 22.984 109.594 22.984C109.215 22.984 108.858 22.9387 108.522 22.848C108.351 22.9547 108.221 23.0693 108.13 23.192C108.039 23.3093 107.994 23.4293 107.994 23.552C107.994 23.744 108.071 23.8907 108.226 23.992C108.386 24.088 108.594 24.1573 108.85 24.2C109.106 24.2427 109.397 24.2693 109.722 24.28C110.053 24.2907 110.389 24.3093 110.73 24.336C111.077 24.3573 111.413 24.3973 111.738 24.456C112.069 24.5147 112.362 24.6107 112.618 24.744C112.874 24.8773 113.079 25.0613 113.234 25.296C113.394 25.5307 113.474 25.8347 113.474 26.208C113.474 26.5547 113.386 26.8907 113.21 27.216C113.039 27.5413 112.791 27.8293 112.466 28.08C112.141 28.336 111.741 28.5387 111.266 28.688C110.797 28.8427 110.266 28.92 109.674 28.92C109.082 28.92 108.565 28.8613 108.122 28.744C107.679 28.6267 107.311 28.4693 107.018 28.272C106.725 28.0747 106.503 27.8453 106.354 27.584C106.21 27.328 106.138 27.0587 106.138 26.776C106.138 26.376 106.263 26.0373 106.514 25.76C106.765 25.4827 107.109 25.2613 107.546 25.096C107.306 24.9893 107.114 24.848 106.97 24.672C106.831 24.4907 106.762 24.248 106.762 23.944C106.762 23.8267 106.783 23.7067 106.826 23.584C106.869 23.456 106.933 23.3307 107.018 23.208C107.109 23.08 107.218 22.96 107.346 22.848C107.474 22.736 107.623 22.6373 107.794 22.552C107.394 22.328 107.082 22.032 106.858 21.664C106.634 21.2907 106.522 20.8587 106.522 20.368C106.522 19.9733 106.597 19.616 106.746 19.296C106.901 18.9707 107.114 18.696 107.386 18.472C107.658 18.2427 107.981 18.0667 108.354 17.944C108.733 17.8213 109.146 17.76 109.594 17.76C109.946 17.76 110.274 17.8 110.578 17.88C110.882 17.9547 111.159 18.0667 111.41 18.216H113.61ZM125.581 21.064C125.581 20.7333 125.533 20.432 125.437 20.16C125.347 19.8827 125.211 19.6453 125.029 19.448C124.853 19.2453 124.637 19.0907 124.381 18.984C124.125 18.872 123.835 18.816 123.509 18.816C122.827 18.816 122.285 19.016 121.885 19.416C121.491 19.8107 121.245 20.36 121.149 21.064H125.581ZM126.733 24.864C126.557 25.0773 126.347 25.264 126.101 25.424C125.856 25.5787 125.592 25.7067 125.309 25.808C125.032 25.9093 124.744 25.984 124.445 26.032C124.147 26.0853 123.851 26.112 123.557 26.112C122.997 26.112 122.48 26.0187 122.005 25.832C121.536 25.64 121.128 25.3627 120.781 25C120.44 24.632 120.173 24.1787 119.981 23.64C119.789 23.1013 119.693 22.4827 119.693 21.784C119.693 21.2187 119.779 20.6907 119.949 20.2C120.125 19.7093 120.376 19.2853 120.701 18.928C121.027 18.5653 121.424 18.2827 121.893 18.08C122.363 17.872 122.891 17.768 123.477 17.768C123.963 17.768 124.411 17.8507 124.821 18.016C125.237 18.176 125.595 18.4107 125.893 18.72C126.197 19.024 126.435 19.4027 126.605 19.856C126.776 20.304 126.861 20.816 126.861 21.392C126.861 21.616 126.837 21.7653 126.789 21.84C126.741 21.9147 126.651 21.952 126.517 21.952H121.101C121.117 22.464 121.187 22.9093 121.309 23.288C121.437 23.6667 121.613 23.984 121.837 24.24C122.061 24.4907 122.328 24.68 122.637 24.808C122.947 24.9307 123.293 24.992 123.677 24.992C124.035 24.992 124.341 24.952 124.597 24.872C124.859 24.7867 125.083 24.696 125.269 24.6C125.456 24.504 125.611 24.416 125.733 24.336C125.861 24.2507 125.971 24.208 126.061 24.208C126.179 24.208 126.269 24.2533 126.333 24.344L126.733 24.864ZM145.592 26.128C144.952 26.128 144.459 25.9493 144.112 25.592C143.771 25.2347 143.6 24.72 143.6 24.048V19.088H142.624C142.539 19.088 142.467 19.064 142.408 19.016C142.35 18.9627 142.32 18.8827 142.32 18.776V18.208L143.648 18.04L143.976 15.536C143.992 15.456 144.027 15.392 144.08 15.344C144.139 15.2907 144.214 15.264 144.304 15.264H145.024V18.056H147.368V19.088H145.024V23.952C145.024 24.2933 145.107 24.5467 145.272 24.712C145.438 24.8773 145.651 24.96 145.912 24.96C146.062 24.96 146.19 24.9413 146.296 24.904C146.408 24.8613 146.504 24.816 146.584 24.768C146.664 24.72 146.731 24.6773 146.784 24.64C146.843 24.5973 146.894 24.576 146.936 24.576C147.011 24.576 147.078 24.6213 147.136 24.712L147.552 25.392C147.307 25.6213 147.011 25.8027 146.664 25.936C146.318 26.064 145.96 26.128 145.592 26.128ZM157.408 17.768C158 17.768 158.533 17.8667 159.008 18.064C159.483 18.2613 159.888 18.5413 160.224 18.904C160.56 19.2667 160.816 19.7067 160.992 20.224C161.173 20.736 161.264 21.3093 161.264 21.944C161.264 22.584 161.173 23.16 160.992 23.672C160.816 24.184 160.56 24.6213 160.224 24.984C159.888 25.3467 159.483 25.6267 159.008 25.824C158.533 26.016 158 26.112 157.408 26.112C156.811 26.112 156.272 26.016 155.792 25.824C155.317 25.6267 154.912 25.3467 154.576 24.984C154.24 24.6213 153.981 24.184 153.8 23.672C153.624 23.16 153.536 22.584 153.536 21.944C153.536 21.3093 153.624 20.736 153.8 20.224C153.981 19.7067 154.24 19.2667 154.576 18.904C154.912 18.5413 155.317 18.2613 155.792 18.064C156.272 17.8667 156.811 17.768 157.408 17.768ZM157.408 25C158.208 25 158.805 24.7333 159.2 24.2C159.595 23.6613 159.792 22.912 159.792 21.952C159.792 20.9867 159.595 20.2347 159.2 19.696C158.805 19.1573 158.208 18.888 157.408 18.888C157.003 18.888 156.648 18.9573 156.344 19.096C156.045 19.2347 155.795 19.4347 155.592 19.696C155.395 19.9573 155.245 20.28 155.144 20.664C155.048 21.0427 155 21.472 155 21.952C155 22.912 155.197 23.6613 155.592 24.2C155.992 24.7333 156.597 25 157.408 25ZM174.934 17.896V26H174.086C173.883 26 173.755 25.9013 173.702 25.704L173.59 24.832C173.238 25.2213 172.843 25.536 172.406 25.776C171.969 26.0107 171.467 26.128 170.902 26.128C170.459 26.128 170.067 26.056 169.726 25.912C169.39 25.7627 169.107 25.5547 168.878 25.288C168.649 25.0213 168.475 24.6987 168.358 24.32C168.246 23.9413 168.19 23.5227 168.19 23.064V17.896H169.614V23.064C169.614 23.6773 169.753 24.152 170.03 24.488C170.313 24.824 170.742 24.992 171.318 24.992C171.739 24.992 172.131 24.8933 172.494 24.696C172.862 24.4933 173.201 24.216 173.51 23.864V17.896H174.934ZM183.744 19.52C184 18.9653 184.315 18.5333 184.688 18.224C185.061 17.9093 185.517 17.752 186.056 17.752C186.227 17.752 186.389 17.7707 186.544 17.808C186.704 17.8453 186.845 17.904 186.968 17.984L186.864 19.048C186.832 19.1813 186.752 19.248 186.624 19.248C186.549 19.248 186.44 19.232 186.296 19.2C186.152 19.168 185.989 19.152 185.808 19.152C185.552 19.152 185.323 19.1893 185.12 19.264C184.923 19.3387 184.744 19.4507 184.584 19.6C184.429 19.744 184.288 19.9253 184.16 20.144C184.037 20.3573 183.925 20.6027 183.824 20.88V26H182.392V17.896H183.208C183.363 17.896 183.469 17.9253 183.528 17.984C183.587 18.0427 183.627 18.144 183.648 18.288L183.744 19.52Z" fill="black"/>
<path d="M1 25.8276C3.69579 24.4797 10.7048 22.5075 17.1747 25.4019C25.2621 29.02 32.4982 28.3815 37.606 25.8276C42.7138 23.2737 48.6729 23.6993 54.4192 25.8276" stroke="black"/>
<path d="M1 31.7895C3.69579 30.4416 10.7048 28.4694 17.1747 31.3639C25.2621 34.9819 32.4982 34.3434 37.606 31.7895C42.7138 29.2356 48.6729 29.6612 54.4192 31.7895" stroke="black"/>
<path d="M1.85132 36.8979C4.54711 35.55 11.5562 33.5778 18.0261 36.4723C26.1134 40.0903 33.3495 39.4518 38.4573 36.8979C43.5651 34.344 49.5243 34.7696 55.2705 36.8979" stroke="black"/>
<path d="M4.40527 19.8684L11.8542 9.22709L18.8774 12.6323L27.6033 1.35254L33.988 6.24753L45.9063 10.504L52.5039 20.7197" stroke="black"/>
<path d="M25.1288 1.77844L21.2982 6.24779C20.6597 5.60932 19.1271 4.63031 20.6595 2.41692C22.1918 0.203534 24.2775 1.06902 25.1288 1.77844Z" fill="black" stroke="black"/>
</svg>
