<svg width="30" height="30" viewBox="0 0 30 30" fill="none" xmlns="http://www.w3.org/2000/svg">
<path d="M24.4405 3.74638C24.1396 3.76828 23.8442 3.83888 23.5658 3.95544H23.5621C23.2949 4.06138 22.0246 4.59576 20.0933 5.40576L13.1727 8.32044C8.20677 10.4111 3.32521 12.4698 3.32521 12.4698L3.38333 12.4473C3.38333 12.4473 3.04677 12.5579 2.69521 12.7989C2.47802 12.9371 2.29112 13.1179 2.14584 13.3304C1.97334 13.5836 1.83459 13.9708 1.88615 14.3711C1.97052 15.0479 2.40927 15.4539 2.72427 15.6779C3.04302 15.9048 3.34677 16.0108 3.34677 16.0108H3.35427L7.93209 17.5529C8.1374 18.212 9.32708 22.1233 9.61302 23.0242C9.78177 23.5623 9.94584 23.8989 10.1511 24.1558C10.2505 24.287 10.3668 24.3967 10.5065 24.4848C10.5791 24.5271 10.6565 24.5604 10.7371 24.5842L10.6902 24.5729C10.7043 24.5767 10.7155 24.5879 10.7258 24.5917C10.7633 24.602 10.7886 24.6058 10.8365 24.6133C11.5611 24.8326 12.1433 24.3826 12.1433 24.3826L12.1761 24.3564L14.879 21.8954L19.409 25.3708L19.5121 25.4148C20.4561 25.8292 21.4124 25.5986 21.9177 25.1917C22.4268 24.782 22.6246 24.2579 22.6246 24.2579L22.6574 24.1736L26.158 6.24013C26.2574 5.79763 26.2827 5.38326 26.173 4.98107C26.0599 4.57403 25.7987 4.22395 25.4408 3.99951C25.1403 3.8168 24.7918 3.72861 24.4405 3.74638ZM24.3458 5.66826C24.3421 5.72732 24.3533 5.72076 24.3271 5.83419V5.84451L20.8593 23.5914C20.8443 23.6167 20.819 23.672 20.7496 23.7273C20.6765 23.7854 20.6183 23.822 20.3136 23.7011L14.773 19.4533L11.4261 22.5039L12.1293 18.0133L21.1818 9.57576C21.5549 9.22888 21.4302 9.15576 21.4302 9.15576C21.4565 8.73013 20.8668 9.03107 20.8668 9.03107L9.45177 16.1026L9.44802 16.0839L3.97677 14.2417V14.2379L3.96271 14.2351C3.9723 14.2319 3.98169 14.2282 3.99084 14.2239L4.02084 14.2089L4.0499 14.1986C4.0499 14.1986 8.93521 12.1398 13.9011 10.0492C16.3874 9.00201 18.8924 7.94732 20.819 7.13357C21.9615 6.65264 23.1053 6.17451 24.2502 5.69919C24.3271 5.66919 24.2905 5.66919 24.3458 5.66919V5.66826Z" fill="black"/>
</svg>
