<svg width="30" height="30" viewBox="0 0 30 30" fill="none" xmlns="http://www.w3.org/2000/svg">
<path fill-rule="evenodd" clip-rule="evenodd" d="M22.9725 7.03504C21.9344 5.99048 20.6993 5.16228 19.3388 4.5984C17.9784 4.03452 16.5196 3.74616 15.0469 3.75004C8.87344 3.75004 3.84375 8.77504 3.84375 14.9485C3.83907 16.9142 4.35465 18.8462 5.33812 20.5482L3.75 26.3522L9.69 24.7922C11.3325 25.687 13.1727 26.1565 15.0431 26.1582H15.0478C21.2222 26.1582 26.2463 21.1341 26.25 14.956C26.25 11.9644 25.0856 9.15191 22.9725 7.0341V7.03504ZM15.0469 24.2654H15.0431C13.3758 24.2653 11.7391 23.8176 10.3041 22.9688L9.96375 22.7672L6.43688 23.6907L7.37812 20.2547L7.15875 19.9032C6.22556 18.4192 5.73151 16.7014 5.73375 14.9485C5.73375 9.81848 9.91219 5.64379 15.0506 5.64379C16.2735 5.64073 17.4849 5.88028 18.6145 6.34857C19.7442 6.81685 20.7698 7.50457 21.6319 8.37191C22.4982 9.23509 23.1849 10.2614 23.6524 11.3914C24.1198 12.5215 24.3587 13.733 24.3553 14.956C24.3553 20.0907 20.1769 24.2654 15.0459 24.2654H15.0469ZM20.1516 17.2922C19.8731 17.1535 18.4959 16.4766 18.24 16.3847C17.9841 16.2891 17.7966 16.245 17.61 16.5235C17.4225 16.8047 16.8881 17.4357 16.7241 17.6222C16.5628 17.805 16.3978 17.8313 16.1194 17.6916C15.8381 17.5529 14.9372 17.2557 13.8675 16.3004C13.0359 15.5597 12.4725 14.641 12.3112 14.3625C12.1462 14.0813 12.2925 13.9313 12.4322 13.7907C12.5597 13.6669 12.7134 13.4654 12.8531 13.3004C12.9919 13.14 13.0406 13.0229 13.1344 12.8354C13.2263 12.6488 13.1794 12.4838 13.1091 12.345C13.0397 12.2063 12.48 10.8254 12.2456 10.2647C12.0178 9.7191 11.7872 9.79598 11.6156 9.78566C11.4544 9.77816 11.2678 9.77816 11.0812 9.77816C10.8937 9.77816 10.59 9.84754 10.3331 10.1297C10.0772 10.4082 9.35531 11.086 9.35531 12.4622C9.35531 13.8394 10.3584 15.1716 10.4991 15.3591C10.6378 15.5419 12.4725 18.3685 15.2803 19.5816C15.8006 19.8066 16.3326 20.0035 16.8741 20.1713C17.5444 20.3832 18.1556 20.3541 18.6394 20.2838C19.1775 20.2041 20.2941 19.6069 20.5284 18.9516C20.76 18.3 20.76 17.7394 20.6897 17.6222C20.6203 17.505 20.4338 17.4347 20.1516 17.2922Z" fill="black"/>
</svg>
