<svg width="30" height="30" viewBox="0 0 30 30" fill="none" xmlns="http://www.w3.org/2000/svg">
<path d="M25.5653 4.00224C25.2643 4.02414 24.9689 4.09474 24.6906 4.2113H24.6868C24.4197 4.31724 23.1493 4.85162 21.2181 5.66162L14.2975 8.5763C9.33153 10.6669 4.44997 12.7257 4.44997 12.7257L4.50809 12.7032C4.50809 12.7032 4.17153 12.8138 3.81997 13.0547C3.60277 13.1929 3.41588 13.3738 3.27059 13.5863C3.09809 13.8394 2.95934 14.2266 3.0109 14.6269C3.09528 15.3038 3.53403 15.7097 3.84903 15.9338C4.16778 16.1607 4.47153 16.2666 4.47153 16.2666H4.47903L9.05684 17.8088C9.26215 18.4679 10.4518 22.3791 10.7378 23.2801C10.9065 23.8182 11.0706 24.1547 11.2759 24.4116C11.3753 24.5429 11.4915 24.6526 11.6312 24.7407C11.7038 24.7829 11.7813 24.8163 11.8618 24.8401L11.815 24.8288C11.829 24.8326 11.8403 24.8438 11.8506 24.8476C11.8881 24.8579 11.9134 24.8616 11.9612 24.8691C12.6859 25.0885 13.2681 24.6385 13.2681 24.6385L13.3009 24.6122L16.0037 22.1513L20.5337 25.6266L20.6368 25.6707C21.5809 26.0851 22.5372 25.8544 23.0425 25.4476C23.5515 25.0379 23.7493 24.5138 23.7493 24.5138L23.7822 24.4294L27.2828 6.49599C27.3822 6.05349 27.4075 5.63912 27.2978 5.23693C27.1846 4.82989 26.9235 4.47981 26.5656 4.25537C26.265 4.07266 25.9165 3.98447 25.5653 4.00224ZM25.4706 5.92412C25.4668 5.98318 25.4781 5.97662 25.4518 6.09005V6.10037L21.984 23.8472C21.969 23.8726 21.9437 23.9279 21.8743 23.9832C21.8012 24.0413 21.7431 24.0779 21.4384 23.9569L15.8978 19.7091L12.5509 22.7597L13.254 18.2691L22.3065 9.83162C22.6797 9.48474 22.555 9.41162 22.555 9.41162C22.5812 8.98599 21.9915 9.28693 21.9915 9.28693L10.5765 16.3585L10.5728 16.3397L5.10153 14.4976V14.4938L5.08747 14.491C5.09706 14.4878 5.10645 14.484 5.11559 14.4797L5.14559 14.4647L5.17465 14.4544C5.17465 14.4544 10.06 12.3957 15.0259 10.3051C17.5122 9.25787 20.0172 8.20318 21.9437 7.38943C23.0863 6.90849 24.23 6.43037 25.375 5.95505C25.4518 5.92505 25.4153 5.92505 25.4706 5.92505V5.92412Z" fill="black"/>
</svg>
