<svg width="30" height="30" viewBox="0 0 30 30" fill="none" xmlns="http://www.w3.org/2000/svg">
<path fill-rule="evenodd" clip-rule="evenodd" d="M23.2225 7.28504C22.1844 6.24048 20.9493 5.41228 19.5888 4.8484C18.2284 4.28452 16.7696 3.99616 15.2969 4.00004C9.12344 4.00004 4.09375 9.02504 4.09375 15.1985C4.08907 17.1642 4.60465 19.0962 5.58812 20.7982L4 26.6022L9.94 25.0422C11.5825 25.937 13.4227 26.4065 15.2931 26.4082H15.2978C21.4722 26.4082 26.4962 21.3841 26.5 15.206C26.5 12.2144 25.3356 9.40285 23.2225 7.28504ZM15.2969 24.5154H15.2931C13.6258 24.5153 11.9891 24.0676 10.5541 23.2188L10.2138 23.0172L6.68688 23.9407L7.62812 20.5047L7.40875 20.1532C6.47556 18.6692 5.98151 16.9514 5.98375 15.1985C5.98375 10.0685 10.1622 5.89379 15.3006 5.89379C16.5235 5.89073 17.7349 6.13028 18.8645 6.59857C19.9942 7.06685 21.0198 7.75457 21.8819 8.62191C22.7482 9.48509 23.4349 10.5114 23.9024 11.6414C24.3698 12.7715 24.6087 13.983 24.6053 15.206C24.6053 20.3407 20.4278 24.5154 15.2969 24.5154ZM20.4016 17.5422C20.1231 17.4035 18.7459 16.7266 18.49 16.6347C18.2341 16.5391 18.0466 16.495 17.86 16.7735C17.6725 17.0547 17.1381 17.6857 16.9741 17.8722C16.8128 18.055 16.6478 18.0813 16.3694 17.9416C16.0881 17.8029 15.1872 17.5057 14.1175 16.5504C13.2859 15.8097 12.7225 14.891 12.5612 14.6125C12.3962 14.3313 12.5425 14.1813 12.6822 14.0407C12.8097 13.9169 12.9634 13.7154 13.1031 13.5504C13.2419 13.39 13.2906 13.2729 13.3844 13.0854C13.4763 12.8988 13.4294 12.7338 13.3591 12.595C13.2897 12.4563 12.73 11.0754 12.4956 10.5147C12.2678 9.9691 12.0372 10.046 11.8656 10.0357C11.7044 10.0282 11.5178 10.0282 11.3312 10.0282C11.1437 10.0282 10.84 10.0975 10.5831 10.3797C10.3272 10.6582 9.60531 11.336 9.60531 12.7122C9.60531 14.0894 10.6084 15.4216 10.7491 15.6091C10.8878 15.7919 12.7225 18.6185 15.5303 19.8316C16.0506 20.0566 16.5826 20.2535 17.1241 20.4213C17.7944 20.6332 18.4056 20.6041 18.8894 20.5338C19.4275 20.4541 20.5441 19.8569 20.7784 19.2016C21.01 18.55 21.01 17.9894 20.9397 17.8722C20.8703 17.755 20.6838 17.6847 20.4016 17.5422Z" fill="black"/>
</svg>
